<svg width="512" height="512" viewBox="0 0 512 512" fill="none" xmlns="http://www.w3.org/2000/svg"><rect width="512" height="512" rx="120" fill="#fff"/><defs><filter id="a" x="-20%" y="-20%" width="140%" height="140%"><feGaussianBlur in="SourceAlpha" stdDeviation="8"/><feOffset dy="4"/><feComponentTransfer><feFuncA type="linear" slope=".3"/></feComponentTransfer><feMerge><feMergeNode/><feMergeNode in="SourceGraphic"/></feMerge></filter></defs><circle cx="256" cy="256" r="190" stroke="#e2e8f0" stroke-width="4" stroke-dasharray="12 12"/><path d="M256 80c97.2 0 176 78.8 176 176 0 44-17 84-44 114L256 256 124 142c30-38 78-62 132-62" fill="#4caf50" opacity=".9" filter="url(#a)"/><path d="M256 432c-97.2 0-176-78.8-176-176 0-44 17-84 44-114l132 114 132 114c-30 38-78 62-132 62" fill="#2e7d32" filter="url(#a)"/><path d="m212 344 88-176m-44 88-55-33" stroke-width="30.8" stroke="#fff" stroke-linecap="round"/><path d="M360 220h30m-20 15h20m-10 15h10" opacity=".6" stroke="#fff" stroke-width="6" stroke-linecap="round"/></svg>